#!OML:ASF H:\ManfredObstacles\Project 1\Capture day 2\Session 1\male.ASF
:FULLY-SPECIFIED
:DEGREES
178
root 1.73682 15.6328 3.74935 -173.35 -0.00662937 177.462
lowerback -6.78282 0.239486 -5.46313
upperback 1.0458 0.783793 -0.803245
thorax 4.83937 0.23133 2.31596
lowerneck -37.0823 0.328451 0.19188
upperneck 39.5501 -3.07501 2.50571
head 23.8304 -1.27828 0.157618
rclavicle -4.14963e-015 6.36111e-015
rhumerus -33.5963 -19.4456 -76.488
rradius 30.6324
rwrist 30.885
rhand -4.88678 -8.00892
rfingers 7.12502
rthumb 20.9022 -36.9028
lclavicle -4.14963e-015 6.36111e-015
lhumerus -21.9172 -6.40964 88.6291
lradius 51.4507
lwrist -33.0294
lhand -8.54325 5.29366
lfingers 7.12502
lthumb 17.3861 34.5361
rfemur -14.5709 7.99768 20.6768
rtibia 34.9986
rfoot -21.0111 -23.8063
rtoes -10.8412
lfemur -17.0585 -6.57211 -24.6675
ltibia 33.5188
lfoot -8.53424 22.113
ltoes -1.85601
179
root 1.73118 15.6316 3.7597 -173.331 0.195901 177.471
lowerback -6.69926 0.167248 -5.43343
upperback 1.09531 0.759571 -0.811907
thorax 4.84942 0.252606 2.28992
lowerneck -37.0177 0.391264 0.227109
upperneck 39.6049 -3.0371 2.51859
head 23.8561 -1.26549 0.16719
rclavicle -3.32964e-015 1.98785e-015
rhumerus -33.3601 -18.8965 -77.0577
rradius 31.1318
rwrist 30.2562
rhand -4.98591 -7.99562
rfingers 7.12502
rthumb 20.8069 -36.9
lclavicle -3.32964e-015 1.98785e-015
lhumerus -21.9242 -6.59432 88.5761
lradius 50.9901
lwrist -32.9407
lhand -8.09568 5.24157
lfingers 7.12502
lthumb 17.8168 34.4454
rfemur -14.7053 8.02619 20.6267
rtibia 35.0581
rfoot -21.046 -23.696
rtoes -11.0048
lfemur -17.1011 -6.65566 -24.6889
ltibia 33.5236
lfoot -8.39643 22.3749
ltoes -1.71314
180
root 1.72594 15.6305 3.76895 -173.311 0.378079 177.476
lowerback -6.62211 0.142302 -5.41572
upperback 1.14365 0.721411 -0.817601
thorax 4.85959 0.233053 2.2694
lowerneck -36.9882 0.455074 0.287146
upperneck 39.6567 -2.99116 2.49585
head 23.8888 -1.24898 0.155004
rclavicle -2.01269e-015 2.42517e-014
rhumerus -33.1525 -18.3727 -77.5818
rradius 31.5812
rwrist 29.6874
rhand -5.07207 -7.96315
rfingers 7.12502
rthumb 20.7242 -36.8766
lclavicle -2.01269e-015 2.42517e-014
lhumerus -21.9506 -6.75605 88.5274
lradius 50.4907
lwrist -32.9087
lhand -7.57881 5.18075
lfingers 7.12502
lthumb 18.3141 34.3386
rfemur -14.8156 8.0568 20.5755
rtibia 35.0885
rfoot -21.0705 -23.5865
rtoes -11.1128
lfemur -17.1465 -6.70095 -24.7129
ltibia 33.5304
lfoot -8.2891 22.59
ltoes -1.59673
181
root 1.72123 15.6296 3.77689 -173.291 0.537934 177.482
lowerback -6.54159 0.113592 -5.40108
upperback 1.18429 0.677843 -0.819981
thorax 4.86011 0.211097 2.25348
lowerneck -36.9691 0.516487 0.36114
upperneck 39.7214 -2.94948 2.44861
head 23.9355 -1.23555 0.124688
rclavicle 1.16786e-015 -6.16232e-015
rhumerus -32.9759 -17.8713 -78.061
rradius 31.9666
rwrist 29.1856
rhand -5.14579 -7.91522
rfingers 7.12502
rthumb 20.6533 -36.8364
lclavicle 1.16786e-015 -6.16232e-015
lhumerus -21.9865 -6.89415 88.4868
lradius 49.9275
lwrist -32.9198
lhand -7.02313 5.12102
lfingers 7.12502
lthumb 18.8486 34.2278
rfemur -14.8982 8.09172 20.5296
rtibia 35.0909
rfoot -21.0933 -23.4863
rtoes -11.2087
lfemur -17.1893 -6.71607 -24.7348
ltibia 33.5362
lfoot -8.21269 22.7603
ltoes -1.50153
182
root 1.71725 15.6291 3.7836 -173.269 0.677712 177.5
lowerback -6.46809 0.0835378 -5.37749
upperback 1.22599 0.631777 -0.816514
thorax 4.86586 0.187826 2.2385
lowerneck -36.9563 0.569514 0.423332
upperneck 39.7746 -2.90922 2.40362
head 23.9745 -1.22311 0.097774
rclavicle 5.04416e-015 -2.96189e-014
rhumerus -32.8038 -17.4337 -78.4915
rradius 32.2569
rwrist 28.8105
rhand -5.21403 -7.85203
rfingers 7.12502
rthumb 20.5878 -36.7803
lclavicle 5.04416e-015 -2.96189e-014
lhumerus -22.0064 -6.99292 88.4509
lradius 49.2844
lwrist -33.0203
lhand -6.4467 5.03764
lfingers 7.12502
lthumb 19.4029 34.0896
rfemur -14.9551 8.14076 20.5053
rtibia 35.0643
rfoot -21.1239 -23.4065
rtoes -11.3094
lfemur -17.2331 -6.70479 -24.738
ltibia 33.5425
lfoot -8.17071 22.8883
ltoes -1.4198
183
root 1.71392 15.6291 3.7891 -173.245 0.800095 177.525
lowerback -6.40002 0.0516442 -5.35166
upperback 1.26751 0.583062 -0.807755
thorax 4.87462 0.163102 2.2276
lowerneck -36.9826 0.614292 0.460999
upperneck 39.8279 -2.86558 2.36678
head 24.0286 -1.21082 0.08147
rclavicle -2.73329e-015 1.76918e-014
rhumerus -32.6406 -17.0609 -78.8691
rradius 32.4558
rwrist 28.5661
rhand -5.27357 -7.76434
rfingers 7.12502
rthumb 20.5305 -36.6988
lclavicle -2.73329e-015 1.76918e-014
lhumerus -22.0033 -7.04433 88.4225
lradius 48.5466
lwrist -33.1865
lhand -5.86993 4.93315
lfingers 7.12502
lthumb 19.9574 33.9283
rfemur -14.9917 8.20145 20.4944
rtibia 35.0122
rfoot -21.1715 -23.3478
rtoes -11.4273
lfemur -17.2769 -6.67727 -24.7307
ltibia 33.5486
lfoot -8.15664 22.9886
ltoes -1.34421
184
root 1.71119 15.6296 3.79336 -173.212 0.906252 177.566
lowerback -6.33776 0.0204263 -5.31119
upperback 1.3032 0.533764 -0.793873
thorax 4.88056 0.138514 2.21383
lowerneck -36.9932 0.648532 0.457065
upperneck 39.8956 -2.83829 2.36987
head 24.0939 -1.20743 0.0898082
rclavicle 5.09386e-015 -2.5842e-015
rhumerus -32.4967 -16.7471 -79.2022
rradius 32.579
rwrist 28.3985
rhand -5.32031 -7.70594
rfingers 7.12502
rthumb 20.4856 -36.6452
lclavicle 5.09386e-015 -2.5842e-015
lhumerus -21.9927 -7.05641 88.4014
lradius 47.7202
lwrist -33.3647
lhand -5.33331 4.81137
lfingers 7.12502
lthumb 20.4731 33.752
rfemur -15.0164 8.27138 20.5073
rtibia 34.9392
rfoot -21.2358 -23.3104
rtoes -11.5641
lfemur -17.3251 -6.6431 -24.7013
ltibia 33.5553
lfoot -8.16437 23.0714
ltoes -1.26564
185
root 1.70907 15.6307 3.79649 -173.169 0.997197 177.617
lowerback -6.28964 -0.0104107 -5.26586
upperback 1.33419 0.484876 -0.773842
thorax 4.88946 0.114103 2.20392
lowerneck -36.9962 0.66883 0.426018
upperneck 39.9612 -2.82476 2.39165
head 24.1568 -1.21102 0.109551
rclavicle 2.11209e-015 8.74653e-015
rhumerus -32.3745 -16.5125 -79.4739
rradius 32.6083
rwrist 28.3854
rhand -5.38283 -7.60372
rfingers 7.12502
rthumb 20.4255 -36.5494
lclavicle 2.11209e-015 8.74653e-015
lhumerus -21.9775 -7.00146 88.3885
lradius 46.8073
lwrist -33.6056
lhand -4.84636 4.66329
lfingers 7.12502
lthumb 20.941 33.5529
rfemur -15.0382 8.35056 20.5382
rtibia 34.8533
rfoot -21.316 -23.2926
rtoes -11.6864
lfemur -17.3803 -6.60397 -24.6556
ltibia 33.5617
lfoot -8.18718 23.1419
ltoes -1.18932
186
root 1.70738 15.6323 3.79853 -173.113 1.07674 177.67
lowerback -6.25973 -0.0384602 -5.22101
upperback 1.35999 0.440741 -0.752878
thorax 4.90286 0.0920071 2.19587
lowerneck -37.006 -1.26536 1.8721
upperneck 40.1517 -1.77401 1.23367
head 24.2239 0.610584 0.126197
rclavicle -1.26725e-015 -1.19271e-014
rhumerus -32.2678 -16.3559 -79.6951
rradius 32.5574
rwrist 28.4443
rhand -5.4423 -7.52732
rfingers 7.12502
rthumb 20.3684 -36.4791
lclavicle -1.26725e-015 -1.19271e-014
lhumerus -21.9562 -6.88191 88.3805
lradius 45.8099
lwrist -33.8875
lhand -4.39445 4.52089
lfingers 7.12502
lthumb 21.3751 33.3619
rfemur -15.0661 8.42516 20.5743
rtibia 34.7611
rfoot -21.4037 -23.2787
rtoes -11.7739
lfemur -17.4453 -6.56875 -24.6046
ltibia 33.5682
lfoot -8.21985 23.209
ltoes -1.09892
187
root 1.70612 15.6341 3.79942 -173.044 1.14708 177.724
lowerback -6.24634 -0.0636438 -5.17989
upperback 1.37697 0.401358 -0.729751
thorax 4.91596 0.0722781 2.19275
lowerneck -37.0041 -1.27419 1.88247
upperneck 40.2293 -1.77072 1.22145
head 24.2948 0.618532 0.12212
rclavicle 2.68359e-015 -1.45113e-014
rhumerus -32.1863 -16.3164 -79.8406
rradius 32.4112
rwrist 28.6535
rhand -5.5097 -7.42232
rfingers 7.12502
rthumb 20.3036 -36.381
lclavicle 2.68359e-015 -1.45113e-014
lhumerus -21.9408 -6.67221 88.3763
lradius 44.7315
lwrist -34.2123
lhand -3.99673 4.36835
lfingers 7.12502
lthumb 21.7571 33.1655
rfemur -15.104 8.48971 20.6141
rtibia 34.6695
rfoot -21.4848 -23.2654
rtoes -11.8283
lfemur -17.5205 -6.52989 -24.5503
ltibia 33.5741
lfoot -8.26164 23.2676
ltoes -0.991578
188
root 1.70515 15.6361 3.79902 -172.962 1.21057 177.771
lowerback -6.25329 -0.0856571 -5.14994
upperback 1.3863 0.368072 -0.704743
thorax 4.93208 0.0552842 2.19857
lowerneck -37.0169 -1.27043 1.92002
upperneck 40.2829 -1.759 1.17791
head 24.3475 0.626461 0.0959097
rclavicle -3.05631e-015 1.68967e-014
rhumerus -32.1263 -16.4084 -79.9013
rradius 32.1603
rwrist 29.0072
rhand -5.58831 -7.28731
rfingers 7.12502
rthumb 20.2281 -36.2541
lclavicle -3.05631e-015 1.68967e-014
lhumerus -21.9356 -6.36089 88.3761
lradius 43.5826
lwrist -34.5666
lhand -3.64076 4.23298
lfingers 7.12502
lthumb 22.0989 32.9901
rfemur -15.1547 8.5364 20.6476
rtibia 34.584
rfoot -21.5534 -23.2434
rtoes -11.8551
lfemur -17.6039 -6.48964 -24.5016
ltibia 33.5779
lfoot -8.30501 23.3198
ltoes -0.875358
189
root 1.70452 15.6383 3.79748 -172.866 1.26701 177.807
lowerback -6.27693 -0.104882 -5.1358
upperback 1.38617 0.340603 -0.679514
thorax 4.9473 0.0409358 2.21415
lowerneck -37.0189 -1.25586 1.98675
upperneck 40.3081 -1.74103 1.10328
head 24.368 0.634168 0.0466017
rclavicle -2.50966e-015 -1.59028e-015
rhumerus -32.1005 -16.6197 -79.8845
rradius 31.8468
rwrist 29.4269
rhand -5.64968 -7.17265
rfingers 7.12502
rthumb 20.1691 -36.1456
lclavicle -2.50966e-015 -1.59028e-015
lhumerus -21.9463 -5.94736 88.3731
lradius 42.3696
lwrist -34.9313
lhand -3.31992 4.12659
lfingers 7.12502
lthumb 22.4069 32.847
rfemur -15.2227 8.56611 20.669
rtibia 34.5089
rfoot -21.5968 -23.2173
rtoes -11.8712
lfemur -17.6961 -6.45583 -24.4637
ltibia 33.5776
lfoot -8.34491 23.3679
ltoes -0.738986
190
root 1.70419 15.6407 3.79508 -172.754 1.31265 177.827
lowerback -6.31234 -0.121609 -5.13985
upperback 1.37125 0.318576 -0.657717
thorax 4.95331 0.0293844 2.23696
lowerneck -36.9829 -1.25278 2.03127
upperneck 40.3082 -1.73314 1.03976
head 24.3519 0.634622 0.00375497
rclavicle -5.49143e-015 3.97569e-015
rhumerus -32.1385 -16.966 -79.7793
rradius 31.4929
rwrist 29.9368
rhand -5.687 -7.05654
rfingers 7.12502
rthumb 20.1332 -36.0333
lclavicle -5.49143e-015 3.97569e-015
lhumerus -21.9919 -5.4285 88.36
lradius 41.1106
lwrist -35.3151
lhand -3.03418 4.04565
lfingers 7.12502
lthumb 22.6812 32.7328
rfemur -15.3118 8.57948 20.672
rtibia 34.4467
rfoot -21.6128 -23.1903
rtoes -11.8871
lfemur -17.8001 -6.43419 -24.4417
ltibia 33.5704
lfoot -8.36941 23.4071
ltoes -0.581478
191
root 1.70411 15.6435 3.79205 -172.628 1.3481 177.825
lowerback -6.35522 -0.13741 -5.16685
upperback 1.3435 0.300252 -0.640498
thorax 4.94987 0.0196639 2.26829
lowerneck -36.9298 -1.2568 2.05661
upperneck 40.2979 -1.72933 0.988186
head 24.3205 0.631589 -0.0301377
rclavicle -2.5842e-015 1.03368e-014
rhumerus -32.2476 -17.4057 -79.5976
rradius 31.1312
rwrist 30.4456
rhand -5.68243 -6.96043
rfingers 7.12502
rthumb 20.1376 -35.9367
lclavicle -2.5842e-015 1.03368e-014
lhumerus -22.0737 -4.78037 88.3265
lradius 39.8086
lwrist -35.7459
lhand -2.77445 3.97432
lfingers 7.12502
lthumb 22.9304 32.6307
rfemur -15.422 8.57728 20.6493
rtibia 34.3984
rfoot -21.6051 -23.1606
rtoes -11.8921
lfemur -17.9123 -6.43138 -24.4434
ltibia 33.5548
lfoot -8.37376 23.446
ltoes -0.408974
